# xmcd CD database file
#
# Track frame offsets:
#	150
#	21074
#	46706
#	71308
#	92014
#	114891
#	140469
#	161393
#	187025
#	211627
#	232333
#	255210
#	280788
#	303133
#
# Disc length: 4460 seconds
#
# Revision: 1
# Processed by: cddbd v1.5.2PL0 Copyright (c) Steve Scherf et al.
# Submitted via: CDex 1.70beta2
#
DISCID=a9116a0e
DTITLE=Salsa Karaoké Latin Stars - Canta Lo Mejor de la salsa Vol4
DYEAR=2007
DGENRE=Salsa
TTITLE0=Mi libertad (instrumental)
TTITLE1=Pedro navaja (instrumental)
TTITLE2=Tu me quemas (instrumental)
TTITLE3=Dejala 'instrumental)
TTITLE4=Amor Perfecto (instrumental)
TTITLE5=No Me Quityes la Ropa (instrumental)
TTITLE6=Mi libertad ( Con Voz)
TTITLE7=Pedro navaja (Con Voz )
TTITLE8=Tu me quemas (Con Voz)
TTITLE9=Dejala (Con Voz)
TTITLE10=Amor Perfecto (Con Voz)
TTITLE11=No Me Quityes la Ropa (Con Voz)
TTITLE12=Detalles (Con Voz)
TTITLE13=El rey de la Puntualidad (Con Voz)
EXTD=YEAR: 2007
EXTT0=
EXTT1=
EXTT2=
EXTT3=
EXTT4=
EXTT5=
EXTT6=
EXTT7=
EXTT8=
EXTT9=
EXTT10=
EXTT11=
EXTT12=
EXTT13=
PLAYORDER=
